HIERARCHY
ROOT Hips
{
	OFFSET 0.000000 0.000000 0.000000
	CHANNELS 6 Xposition Yposition Zposition Xrotation Yrotation Zrotation
	JOINT LeftUpLeg_virtual
	{
		OFFSET 0.000000 0.000000 0.000000
		CHANNELS 3 Xrotation Yrotation Zrotation
		JOINT LeftUpLeg
		{
			OFFSET 10.205400 -3.823500 0.155100
			CHANNELS 3 Xrotation Yrotation Zrotation
			JOINT LeftLeg
			{
				OFFSET 0.708757 -12.982077 0.567790
				CHANNELS 3 Xrotation Yrotation Zrotation
				JOINT LeftFoot
				{
					OFFSET -0.708756 -10.717838 -2.184338
					CHANNELS 3 Xrotation Yrotation Zrotation
					JOINT LeftToeBase
					{
						OFFSET 0.108149 -7.191104 7.560241
						CHANNELS 3 Xrotation Yrotation Zrotation
						JOINT LeftToe_End
						{
							OFFSET 0.070230 0.081724 4.490308
							CHANNELS 3 Xrotation Yrotation Zrotation
							End Site
							{
								OFFSET 0 0 0
							}
						}
					}
				}
			}
		}
	}
	JOINT RightUpLeg_virtual
	{
		OFFSET 0.000000 0.000000 0.000000
		CHANNELS 3 Xrotation Yrotation Zrotation
		JOINT RightUpLeg
		{
			OFFSET -10.205400 -3.823500 0.005500
			CHANNELS 3 Xrotation Yrotation Zrotation
			JOINT RightLeg
			{
				OFFSET -0.708756 -12.982134 0.610632
				CHANNELS 3 Xrotation Yrotation Zrotation
				JOINT RightFoot
				{
					OFFSET 0.708754 -10.717769 -1.945823
					CHANNELS 3 Xrotation Yrotation Zrotation
					JOINT RightToeBase
					{
						OFFSET -0.108140 -7.191069 7.372968
						CHANNELS 3 Xrotation Yrotation Zrotation
						JOINT RightToe_End
						{
							OFFSET -0.070227 0.081735 4.479403
							CHANNELS 3 Xrotation Yrotation Zrotation
							End Site
							{
								OFFSET 0 0 0
							}
						}
					}
				}
			}
		}
	}
	JOINT Spine_virtual
	{
		OFFSET 0.000000 0.000000 0.000000
		CHANNELS 3 Xrotation Yrotation Zrotation
		JOINT Spine
		{
			OFFSET 0.000000 6.876099 0.125700
			CHANNELS 3 Xrotation Yrotation Zrotation
			JOINT Spine1
			{
				OFFSET 0.000000 5.730043 0.104720
				CHANNELS 3 Xrotation Yrotation Zrotation
				JOINT Spine1_split
				{
					OFFSET 0.000000 5.730043 0.104720
					CHANNELS 3 Xrotation Yrotation Zrotation
					JOINT Spine2
					{
						OFFSET 0.000000 5.730043 0.104720
						CHANNELS 3 Xrotation Yrotation Zrotation
						JOINT Neck_virtual
						{
							OFFSET 0.000000 0.000000 0.000000
							CHANNELS 3 Xrotation Yrotation Zrotation
							JOINT Neck
							{
								OFFSET 0.000000 10.314075 0.188496
								CHANNELS 3 Xrotation Yrotation Zrotation
								JOINT Head
								{
									OFFSET 0.000000 7.643700 -2.377400
									CHANNELS 3 Xrotation Yrotation Zrotation
									JOINT HeadTop_End
									{
										OFFSET 0.000000 43.788605 -13.619600
										CHANNELS 3 Xrotation Yrotation Zrotation
										End Site
										{
											OFFSET 0 0 0
										}
									}
								}
							}
						}
						JOINT LeftShoulder_virtual
						{
							OFFSET 0.000000 0.000000 0.000000
							CHANNELS 3 Xrotation Yrotation Zrotation
							JOINT LeftShoulder
							{
								OFFSET 2.196100 4.412489 0.087492
								CHANNELS 3 Xrotation Yrotation Zrotation
								JOINT LeftShoulder_split
								{
									OFFSET 2.196100 4.412489 0.087492
									CHANNELS 3 Xrotation Yrotation Zrotation
									JOINT LeftArm
									{
										OFFSET 8.771219 -2.981674 -0.026999
										CHANNELS 3 Xrotation Yrotation Zrotation
										JOINT LeftForeArm
										{
											OFFSET 8.512804 0.000000 -0.000000
											CHANNELS 3 Xrotation Yrotation Zrotation
											JOINT LeftHand
											{
												OFFSET 18.484802 0.000000 -0.000000
												CHANNELS 3 Xrotation Yrotation Zrotation
												End Site
												{
													OFFSET 0 0 0
												}
											}
										}
									}
								}
							}
						}
						JOINT RightShoulder_virtual
						{
							OFFSET 0.000000 0.000000 0.000000
							CHANNELS 3 Xrotation Yrotation Zrotation
							JOINT RightShoulder
							{
								OFFSET -2.196100 4.412496 0.070690
								CHANNELS 3 Xrotation Yrotation Zrotation
								JOINT RightShoulder_split
								{
									OFFSET -2.196100 4.412496 0.070690
									CHANNELS 3 Xrotation Yrotation Zrotation
									JOINT RightArm
									{
										OFFSET -8.771282 -2.981682 -0.094208
										CHANNELS 3 Xrotation Yrotation Zrotation
										JOINT RightForeArm
										{
											OFFSET -8.494598 0.000000 0.000000
											CHANNELS 3 Xrotation Yrotation Zrotation
											JOINT RightHand
											{
												OFFSET -18.483803 0.000000 0.000001
												CHANNELS 3 Xrotation Yrotation Zrotation
												End Site
												{
													OFFSET 0 0 0
												}
											}
										}
									}
								}
							}
						}
					}
				}
			}
		}
	}
}
MOTION
Frames: 6
Frame Time: 0.03333333
0.224661 38.307774 -1.119192 0.000000 0.000000 0.000000 -87.010606 -4.369814 -0.743686 9.612992 20.875858 18.508829 -0.044733 4.088614 4.450646 17.265473 29.960198 -33.168205 -5.351536 0.136199 2.135544 0.000000 0.000000 0.000000 -88.901469 0.119734 2.366567 18.678967 -20.309392 -12.242096 -5.488225 -0.996638 -11.065920 30.799652 -32.924394 38.252089 -12.037101 1.327048 -2.271287 0.000000 0.000000 0.000000 -87.666987 -6.517684 -3.712147 4.620872 1.306903 0.053291 16.571033 4.091559 -1.812340 0.453228 -0.181070 -0.087471 0.000000 0.000000 0.000000 14.743259 3.705518 -2.233688 -2.414549 1.072587 -4.240018 21.497886 4.762640 -8.695869 0.000000 0.000000 0.000000 16.766654 3.366485 -1.670083 -0.348313 7.065559 1.716627 -0.702647 -0.998935 -3.057920 15.907702 -51.527070 -39.527370 -0.618121 -80.791917 -0.121997 0.000000 0.000000 0.000000 15.198667 3.606721 -2.049025 0.733911 1.990991 14.646728 1.271323 2.414782 1.842933 -33.936358 34.604600 62.129730 178.498128 53.720548 -179.851448 0.000000 0.000000 0.000000 
0.209501 38.256561 -1.174749 0.000000 0.000000 0.000000 -86.976701 -4.786446 -1.078901 9.804922 20.553631 18.718489 -0.300910 4.429401 4.613521 17.412474 30.250467 -33.321348 -5.460784 0.127870 1.878499 0.000000 0.000000 0.000000 -88.924821 -0.462053 1.864354 18.266615 -20.410151 -11.883202 -5.539560 -0.800143 -10.827691 31.593030 -32.295095 38.503426 -12.573842 1.320746 -2.165075 0.000000 0.000000 0.000000 -87.757569 -6.867646 -3.816951 4.038238 1.127753 0.001433 16.288797 3.884383 -1.691479 0.570109 -0.033017 -0.127141 0.000000 0.000000 0.000000 14.524153 3.554297 -2.135607 -1.596398 0.899399 -4.075461 22.140126 4.909263 -8.881231 0.000000 0.000000 0.000000 16.587861 3.161283 -1.559448 -0.277913 6.445289 1.464131 -0.771882 -1.100423 -2.919247 16.920604 -50.536843 -39.848416 -0.664785 -81.028563 -0.289392 0.000000 0.000000 0.000000 15.092420 3.449684 -1.896685 0.784389 1.443677 14.834230 0.878214 2.601853 2.020601 -34.246224 35.624235 61.934926 178.390047 54.907618 -179.737849 0.000000 0.000000 0.000000 
0.200206 38.201950 -1.155115 0.000000 0.000000 0.000000 -86.761345 -5.178306 -1.544950 9.823584 20.255785 18.885362 -0.655650 4.793624 4.548268 18.205509 30.473606 -33.198093 -5.708723 0.078561 1.742301 0.000000 0.000000 0.000000 -88.625208 -0.906077 1.305743 17.872988 -20.442235 -11.558555 -5.760196 -0.612076 -10.517856 33.167484 -31.460210 39.199951 -13.447405 1.304539 -2.055984 0.000000 0.000000 0.000000 -87.553955 -7.087544 -3.972649 3.395141 0.916680 0.024964 15.839844 3.533530 -1.515413 0.695163 0.152890 -0.120739 0.000000 0.000000 0.000000 14.081168 3.256783 -1.956927 -0.745231 0.717538 -3.809903 22.739289 4.785506 -8.959603 0.000000 0.000000 0.000000 16.212473 2.804703 -1.376548 -0.189661 5.774143 1.340920 -0.828884 -1.016272 -2.789505 17.910472 -49.446547 -40.750561 -0.798599 -81.424830 -0.602964 0.000000 0.000000 0.000000 14.814066 3.148081 -1.695059 0.811386 0.972893 14.893513 0.523287 2.926490 2.246716 -33.522770 36.801373 61.061878 178.273511 55.521891 -179.558925 0.000000 0.000000 0.000000 
0.197207 38.143272 -1.103395 0.000000 0.000000 0.000000 -86.352258 -5.526460 -2.105873 9.690818 20.064251 18.973762 -1.089140 5.142223 4.267647 19.485410 30.606016 -32.832945 -5.906449 0.004658 1.730019 0.000000 0.000000 0.000000 -88.099987 -1.242594 0.704899 17.599859 -20.412131 -11.214768 -6.302188 -0.530154 -10.212542 34.870336 -30.833653 39.902119 -14.277728 1.279683 -1.939698 0.000000 0.000000 0.000000 -87.136767 -7.203965 -4.221909 2.778562 0.686490 0.135850 15.209043 3.061475 -1.285644 0.792969 0.315338 -0.159769 0.000000 0.000000 0.000000 13.419405 2.833260 -1.709921 -0.019540 0.540993 -3.472596 23.137100 4.524155 -9.021380 0.000000 0.000000 0.000000 15.610100 2.330186 -1.138729 -0.090377 5.126225 1.295701 -0.859567 -0.889067 -2.709437 18.987082 -48.165603 -42.062709 -1.282842 -81.818973 -1.297350 0.000000 0.000000 0.000000 14.337416 2.726065 -1.453588 0.796875 0.583700 14.802277 0.244295 3.096887 2.462569 -31.816824 37.911884 59.420836 178.202818 55.419609 -179.361751 0.000000 0.000000 0.000000 
0.191361 38.090981 -1.007805 0.000000 0.000000 0.000000 -85.887867 -5.785433 -2.652895 9.484762 20.010231 18.952595 -1.546057 5.439777 3.831950 20.991890 30.635994 -32.405515 -6.067911 -0.075018 1.848020 0.000000 0.000000 0.000000 -87.449446 -1.486374 0.140275 17.488874 -20.337406 -10.832997 -7.115462 -0.628725 -10.005937 36.201068 -30.786866 40.247603 -14.931775 1.257186 -1.847364 0.000000 0.000000 0.000000 -86.585789 -7.248804 -4.542590 2.282573 0.458832 0.313148 14.405957 2.519302 -1.019952 0.890999 0.609121 -0.223198 0.000000 0.000000 0.000000 12.574853 2.328570 -1.416295 0.455225 0.391356 -3.145723 23.263418 4.218622 -9.160020 0.000000 0.000000 0.000000 14.798547 1.796162 -0.878154 -0.001148 4.503973 1.283872 -1.043610 -0.740028 -2.720609 20.204207 -46.662384 -43.551315 -2.305760 -82.032450 -2.498444 0.000000 0.000000 0.000000 13.651260 2.243901 -1.187347 0.708254 0.270810 14.653696 0.103646 3.011279 2.586480 -29.423936 38.708799 57.205645 178.225740 54.747825 -179.200572 0.000000 0.000000 0.000000 
0.193672 38.063622 -0.939980 0.000000 0.000000 0.000000 -85.430463 -5.997007 -3.121608 9.291335 20.048398 18.837178 -1.932957 5.650708 3.343111 22.576634 30.562764 -32.139506 -6.283497 -0.144906 2.082766 0.000000 0.000000 0.000000 -86.811404 -1.742698 -0.392506 17.536231 -20.284950 -10.448583 -7.967697 -0.891256 -9.892901 37.127081 -31.232741 40.300015 -15.517894 1.257484 -1.816784 0.000000 0.000000 0.000000 -86.023644 -7.310947 -4.910600 1.946957 0.249147 0.508381 13.456501 1.962476 -0.756405 0.965824 0.839936 -0.354725 0.000000 0.000000 0.000000 11.607582 1.805065 -1.113131 0.615493 0.303391 -2.881821 23.101404 3.984546 -9.401620 0.000000 0.000000 0.000000 13.816937 1.270083 -0.627979 0.063388 3.927279 1.230995 -1.279238 -0.669923 -2.813287 21.451560 -44.990500 -45.009772 -3.740887 -82.034711 -4.037027 0.000000 0.000000 0.000000 12.804690 1.763387 -0.924942 0.530934 0.030287 14.519322 0.105893 2.718350 2.820024 -26.687202 39.099636 54.791077 178.312661 53.945415 -179.065403 0.000000 0.000000 0.000000 
